<svg id="Compound_Path" data-name="Compound Path" xmlns="http://www.w3.org/2000/svg" viewBox="0 0 760.6 296.03"><title>ghd</title><path class="cls-1" d="M550.18,154.73a12.31,12.31,0,1,1-12.31-12.31A12.31,12.31,0,0,1,550.18,154.73Zm-12.31,18.42a12.31,12.31,0,1,0,12.31,12.31A12.31,12.31,0,0,0,537.87,173.15Zm0,30.74a12.31,12.31,0,1,0,12.31,12.31A12.31,12.31,0,0,0,537.87,203.89ZM438.74,210a12.31,12.31,0,1,0,12.31,12.31A12.31,12.31,0,0,0,438.74,210Zm.93,115.67A12.31,12.31,0,1,0,452,338,12.31,12.31,0,0,0,439.67,325.67Zm98.19-91a12.31,12.31,0,1,0,12.31,12.31A12.31,12.31,0,0,0,537.87,234.62Zm0,30.73a12.31,12.31,0,1,0,12.31,12.31A12.31,12.31,0,0,0,537.87,265.36Zm0,30.74a12.31,12.31,0,1,0,12.31,12.31A12.31,12.31,0,0,0,537.87,296.09Zm0,30.74a12.31,12.31,0,1,0,12.31,12.31A12.31,12.31,0,0,0,537.87,326.83Zm-41.33.85A12.31,12.31,0,1,0,508.85,340,12.31,12.31,0,0,0,496.54,327.68ZM494.38,357a12.31,12.31,0,1,0,12.31,12.31A12.31,12.31,0,0,0,494.38,357ZM484,384.87a12.31,12.31,0,1,0,12.31,12.31A12.31,12.31,0,0,0,484,384.87ZM461.55,405a12.31,12.31,0,1,0,12.31,12.31A12.31,12.31,0,0,0,461.55,405Zm-28.21,8.84a12.31,12.31,0,1,0,12.31,12.31A12.31,12.31,0,0,0,433.34,413.82Zm130.2-194.55a12.31,12.31,0,1,0,12.31,12.31A12.31,12.31,0,0,0,563.53,219.27Zm27.9-9.27a12.31,12.31,0,1,0,12.31,12.31A12.31,12.31,0,0,0,591.44,210Zm28.14,6.2a12.31,12.31,0,1,0,12.31,12.31A12.31,12.31,0,0,0,619.58,216.2Zm18.21,21.5A12.31,12.31,0,1,0,650.11,250,12.31,12.31,0,0,0,637.79,237.7Zm5.35,27.66a12.31,12.31,0,1,0,12.31,12.31A12.31,12.31,0,0,0,643.14,265.36Zm0,30.74a12.31,12.31,0,1,0,12.31,12.31A12.31,12.31,0,0,0,643.14,296.09Zm0,29.54a12.31,12.31,0,1,0,12.31,12.31A12.31,12.31,0,0,0,643.14,325.63ZM474.2,218.53a12.31,12.31,0,1,0,4.66,16.78A12.31,12.31,0,0,0,474.2,218.53ZM416.36,319.74A12.31,12.31,0,1,0,421,336.52,12.31,12.31,0,0,0,416.36,319.74ZM500,243.94a12.31,12.31,0,1,0-4.19,16.9A12.31,12.31,0,0,0,500,243.94Zm-101,59a12.31,12.31,0,1,0-4.19,16.9A12.31,12.31,0,0,0,399,302.94Zm110.72-24.76a12.31,12.31,0,1,0-12,12.65A12.31,12.31,0,0,0,509.71,278.17ZM392.48,280.1a12.31,12.31,0,1,0-12.11,12.51A12.31,12.31,0,0,0,392.48,280.1Zm114.94,35.61a12.31,12.31,0,1,0-16.64,5.13A12.31,12.31,0,0,0,507.42,315.71Zm-108.09-57.8A12.31,12.31,0,1,0,382.69,263,12.32,12.32,0,0,0,399.33,257.91ZM474.81,341a12.31,12.31,0,1,0-16.89-4.23A12.31,12.31,0,0,0,474.81,341ZM415.34,241.1a12.31,12.31,0,1,0-16.89-4.23A12.32,12.32,0,0,0,415.34,241.1ZM742.25,210a12.31,12.31,0,1,0,12.31,12.31A12.31,12.31,0,0,0,742.25,210Zm-2.63,116.17a12.31,12.31,0,1,0,12.31,12.31A12.31,12.31,0,0,0,739.62,326.17Zm37.85-105.58a12.31,12.31,0,1,0,4.66,16.78A12.31,12.31,0,0,0,777.46,220.58Zm-61.68,98.89a12.31,12.31,0,1,0,4.66,16.78A12.31,12.31,0,0,0,715.78,319.47Zm93.3-76.53a12.31,12.31,0,1,0-4.19,16.9A12.31,12.31,0,0,0,809.08,242.94Zm-.63-31.4a12.31,12.31,0,1,0-4.19,16.9A12.31,12.31,0,0,0,808.45,211.54ZM807.82,181a12.31,12.31,0,1,0-4.19,16.9A12.31,12.31,0,0,0,807.82,181Zm-.63-30a12.31,12.31,0,1,0-4.19,16.9A12.31,12.31,0,0,0,807.19,150.94ZM698.93,302.58a12.31,12.31,0,1,0-4.19,16.9A12.31,12.31,0,0,0,698.93,302.58ZM811.6,278.9a12.31,12.31,0,1,0-12,12.65A12.31,12.31,0,0,0,811.6,278.9Zm-119.18.84a12.31,12.31,0,1,0-12.11,12.51A12.31,12.31,0,0,0,692.42,279.74Zm109.22,35.13A12.31,12.31,0,1,0,785,320,12.31,12.31,0,0,0,801.63,314.87Zm-101.53-59.5a12.31,12.31,0,1,0-16.64,5.13A12.31,12.31,0,0,0,700.11,255.37ZM775.58,341a12.31,12.31,0,1,0-16.89-4.23A12.31,12.31,0,0,0,775.58,341ZM718.22,239a12.31,12.31,0,1,0-16.89-4.23A12.31,12.31,0,0,0,718.22,239Z" transform="translate(-51 -142.42)"/><path class="cls-2" d="M72.76,411.83a46.78,46.78,0,0,0,.4,6.68H68.62l-.4-3.51H68a10.37,10.37,0,0,1-8.52,4.14c-5.64,0-8.52-4-8.52-8,0-6.73,6-10.42,16.75-10.36v-.58c0-2.25-.63-6.45-6.33-6.39a13.43,13.43,0,0,0-7.31,2.07L53,392.49a18,18,0,0,1,9.21-2.42c8.52,0,10.59,5.81,10.59,11.34Zm-4.89-7.54c-5.53-.11-11.8.86-11.8,6.27a4.44,4.44,0,0,0,4.72,4.83,7,7,0,0,0,6.85-4.66,5.73,5.73,0,0,0,.23-1.61Zm25.27-6.1c0-2.94-.06-5.24-.23-7.54h4.49l.29,4.6h.12a10.32,10.32,0,0,1,9.21-5.18c3.86,0,9.84,2.3,9.84,11.86v16.58h-5.06V402.45c0-4.49-1.67-8.23-6.45-8.23a7.43,7.43,0,0,0-7.14,7.54v16.75H93.13Zm34.76,7.31c.12,6.85,4.43,9.67,9.55,9.67a18.12,18.12,0,0,0,7.71-1.44l.92,3.63a22.69,22.69,0,0,1-9.32,1.78c-8.58,0-13.7-5.7-13.7-14.1s4.95-15,13.06-15c9.15,0,11.51,7.94,11.51,13.07a12.33,12.33,0,0,1-.17,2.36Zm14.85-3.63c.06-3.17-1.32-8.17-7-8.17-5.18,0-7.37,4.66-7.77,8.17Zm13.18-11.22,3.74,14.16c.75,3.11,1.5,6,2,8.86h.17c.63-2.82,1.55-5.81,2.47-8.81l4.55-14.22h4.26l4.32,13.93c1,3.34,1.84,6.27,2.47,9.09h.17a83.86,83.86,0,0,1,2.13-9l4-14h5l-9,27.86h-4.6l-4.26-13.3a93,93,0,0,1-2.47-9.15h-.12a82.28,82.28,0,0,1-2.53,9.21l-4.49,13.24h-4.6l-8.4-27.86Zm52.55,8.69c0-3.28-.06-6.1-.23-8.69h4.43l.23,5.53h.17c1.27-3.74,4.37-6.1,7.77-6.1a10.31,10.31,0,0,1,1.38.12V395a7.81,7.81,0,0,0-1.73-.12c-3.57,0-6.1,2.65-6.79,6.45a15.18,15.18,0,0,0-.17,2.36v14.85h-5.06Zm21.06,6.16c.12,6.85,4.43,9.67,9.55,9.67a18.12,18.12,0,0,0,7.71-1.44l.92,3.63a22.7,22.7,0,0,1-9.32,1.78c-8.58,0-13.7-5.7-13.7-14.1s4.95-15,13.06-15c9.15,0,11.51,7.94,11.51,13.07a12.3,12.3,0,0,1-.17,2.36Zm14.85-3.63c.06-3.17-1.32-8.17-7-8.17-5.18,0-7.37,4.66-7.77,8.17Zm11.17-24.23h5.06v40.86h-5.06Zm19.22,5.18a3,3,0,0,1-3.22,3.11,3,3,0,0,1-3.05-3.11,3.09,3.09,0,0,1,3.17-3.17A3,3,0,0,1,274.77,382.82Zm-5.64,35.68V390.65h5.06v27.86Zm38.45-4.09c0,6.45-1.32,10.3-4,12.78s-6.68,3.34-10.19,3.34c-3.34,0-7-.81-9.27-2.3l1.27-3.91a15.16,15.16,0,0,0,8.17,2.25c5.18,0,9-2.7,9-9.79v-3h-.12a9.88,9.88,0,0,1-8.86,4.66c-6.91,0-11.86-5.87-11.86-13.58,0-9.44,6.16-14.73,12.6-14.73,4.83,0,7.42,2.47,8.69,4.78h.12l.17-4.2h4.49c-.17,2-.23,4.26-.23,7.6Zm-5.06-12.78a6.65,6.65,0,0,0-.29-2.24,7.23,7.23,0,0,0-7.08-5.41c-4.83,0-8.29,4.09-8.29,10.53,0,5.47,2.82,10,8.23,10a7.3,7.3,0,0,0,7-5.18,8.82,8.82,0,0,0,.4-2.7Zm18.71-18.82a3,3,0,0,1-3.22,3.11,3,3,0,0,1-3.05-3.11,3.09,3.09,0,0,1,3.17-3.17A3,3,0,0,1,321.22,382.82Zm-5.64,35.68V390.65h5.06v27.86Zm38.68-14.16c0,10.3-7.19,14.79-13.87,14.79-7.48,0-13.35-5.53-13.35-14.33,0-9.27,6.16-14.73,13.81-14.73C348.85,390.08,354.26,395.89,354.26,404.35Zm-22,.29c0,6.1,3.45,10.71,8.4,10.71s8.46-4.55,8.46-10.82c0-4.72-2.36-10.65-8.35-10.65S332.21,399.4,332.21,404.64Zm28.43-6.45c0-2.94-.06-5.24-.23-7.54h4.49l.29,4.6h.12a10.32,10.32,0,0,1,9.21-5.18c3.86,0,9.84,2.3,9.84,11.86v16.58h-5.06V402.45c0-4.49-1.67-8.23-6.45-8.23a7.43,7.43,0,0,0-7.14,7.54v16.75h-5.06Zm170.13,20.32v-24h-3.86v-3.86h3.86v-1.32c0-3.91.92-7.48,3.22-9.73a9.69,9.69,0,0,1,6.79-2.59,11.51,11.51,0,0,1,4.32.8l-.69,3.91a7.38,7.38,0,0,0-3.22-.63c-4.32,0-5.41,3.74-5.41,8.06v1.5h6.73v3.86h-6.73v24Zm40.75-14.16c0,10.3-7.2,14.79-13.87,14.79-7.48,0-13.35-5.53-13.35-14.33,0-9.27,6.16-14.73,13.81-14.73C566.11,390.08,571.52,395.89,571.52,404.35Zm-22,.29c0,6.1,3.45,10.71,8.4,10.71s8.46-4.55,8.46-10.82c0-4.72-2.36-10.65-8.35-10.65S549.48,399.4,549.48,404.64Zm28.43-5.3c0-3.28-.06-6.1-.23-8.69h4.43l.23,5.53h.17c1.27-3.74,4.37-6.1,7.77-6.1a10.3,10.3,0,0,1,1.38.12V395a7.81,7.81,0,0,0-1.73-.12c-3.57,0-6.1,2.65-6.79,6.45a15,15,0,0,0-.17,2.36v14.85h-5.06Zm31-21.7H614v17.44h.12a9.53,9.53,0,0,1,3.63-3.63,10.39,10.39,0,0,1,5.18-1.38c3.74,0,9.73,2.3,9.73,11.86v16.58h-5.06v-16c0-4.49-1.67-8.23-6.45-8.23a7.36,7.36,0,0,0-6.79,5,6.46,6.46,0,0,0-.35,2.42v16.81h-5.06Zm51.51,34.19a46.71,46.71,0,0,0,.4,6.68H656.3l-.4-3.51h-.17a10.37,10.37,0,0,1-8.52,4.14c-5.64,0-8.52-4-8.52-8,0-6.73,6-10.42,16.75-10.36v-.58c0-2.25-.63-6.45-6.33-6.39a13.44,13.44,0,0,0-7.31,2.07l-1.15-3.4a18,18,0,0,1,9.21-2.42c8.52,0,10.59,5.81,10.59,11.34Zm-4.89-7.54c-5.53-.11-11.8.86-11.8,6.27a4.44,4.44,0,0,0,4.72,4.83,7,7,0,0,0,6.85-4.66,5.71,5.71,0,0,0,.23-1.61Zm18.71-21.47a3,3,0,0,1-3.22,3.11,3,3,0,0,1-3-3.11,3.09,3.09,0,0,1,3.16-3.17A3,3,0,0,1,674.26,382.82Zm-5.64,35.68V390.65h5.07v27.86Zm13.47-19.17c0-3.28-.06-6.1-.23-8.69h4.43l.23,5.53h.17c1.27-3.74,4.37-6.1,7.77-6.1a10.32,10.32,0,0,1,1.38.12V395a7.82,7.82,0,0,0-1.73-.12c-3.57,0-6.1,2.65-6.79,6.45a15.13,15.13,0,0,0-.17,2.36v14.85h-5.06Z" transform="translate(-51 -142.42)"/></svg>